:SAMPLES-PER-SECOND 30
:FULLY-SPECIFIED
:DEGREES
564
root  25.9999 37.1337 -24.4141 -0.204865 -36.6614 5.53085
RightUpLeg  -33.5248 -27.3487 9.26219
RightLeg  42.5593 -7.24667 -7.37675
RightFoot  -16.8123 -0.582657 -9.81612
RightToes  5.82063e-011 0 -3.6325e-017
Spine  64.9171 -3.56446 6.76213
Spine1  14.6703 0.498043 -2.77089
HEad  -29.2938 7.79609 -17.1166
LeftShoulder1  4.3175 -22.1035 -9.42288
LeftArm  -50.8429 -77.8641 -8.15684
LeftForeArm  -25.3575 5.43591 -1.03862
LeftHand  -0.244104 0.0205437 5.32207
RightShoulder  1.71078 11.7183 3.2223
RightArm  -51.3597 72.6292 20.0701
RightForeArm  -49.5936 8.24812 3.40724
RightHand  -4.37412 13.4079 -26.8635
LeftUpLeg  -35.9368 5.68522 -3.14873
LeftLeg  13.4395 -10.828 -3.11496
LeftFoot  16.4443 4.85515 -19.7754
LeftToes  1.45487e-011 -6.19069e-011 1.65092e-011
565
root  26.5246 37.4141 -25.2733 0.82666 -35.2727 5.83066
RightUpLeg  -35.0993 -28.7888 10.7254
RightLeg  38.3736 -7.4752 -6.5886
RightFoot  -14.3911 -0.403702 -11.5386
RightToes  5.82063e-011 0 -3.6325e-017
Spine  65.2772 -3.44897 6.58113
Spine1  14.1407 0.518227 -2.64731
HEad  -28.4188 7.48614 -16.2019
LeftShoulder1  4.24398 -22.0904 -9.11413
LeftArm  -53.0658 -78.0442 -5.79292
LeftForeArm  -25.9251 5.40302 -0.971667
LeftHand  -0.244104 0.0205437 5.32207
RightShoulder  1.62278 11.3098 2.89348
RightArm  -53.4605 73.1832 17.8051
RightForeArm  -49.3132 8.24686 3.3317
RightHand  -4.27406 13.2116 -26.5431
LeftUpLeg  -37.1005 2.67164 -1.44318
LeftLeg  18.594 -9.48074 -3.14742
LeftFoot  10.9137 3.00916 -15.5384
LeftToes  1.45487e-011 -6.19069e-011 1.65092e-011
566
root  27.0315 37.7162 -26.0722 2.03336 -34.0365 6.00626
RightUpLeg  -36.6878 -30.5396 12.5919
RightLeg  33.8933 -7.09031 -5.36637
RightFoot  -11.4328 -0.0892457 -12.8921
RightToes  5.82063e-011 0 -3.6325e-017
Spine  65.5332 -3.12571 6.43217
Spine1  13.6444 0.577506 -2.08193
HEad  -27.6684 6.8502 -15.666
LeftShoulder1  4.24474 -22.1701 -9.05924
LeftArm  -56.3437 -78.2815 -2.22895
LeftForeArm  -26.587 5.31539 -0.920669
LeftHand  -0.244104 0.0205437 5.32207
RightShoulder  1.40554 10.6201 1.76551
RightArm  -55.2349 73.6869 15.5297
RightForeArm  -49.7406 8.11423 3.3626
RightHand  -4.22102 13.1811 -26.2709
LeftUpLeg  -37.9153 -1.31921 0.948476
LeftLeg  24.0725 -4.4978 -1.84782
LeftFoot  7.20001 1.81199 -11.4062
LeftToes  1.45487e-011 -6.19069e-011 1.65092e-011
567
root  27.5211 38.0123 -26.8285 3.22699 -32.5865 6.11356
RightUpLeg  -38.2665 -33.0442 14.8268
RightLeg  29.385 -5.65182 -3.78615
RightFoot  -8.45684 0.27879 -13.2836
RightToes  5.82063e-011 0 -3.6325e-017
Spine  65.5561 -3.17784 6.44291
Spine1  13.5896 0.46381 -1.8961
HEad  -27.2691 6.21059 -15.0902
LeftShoulder1  4.15612 -22.1013 -8.72457
LeftArm  -59.6376 -78.3829 1.11357
LeftForeArm  -27.1644 5.02394 -0.776984
LeftHand  -0.244104 0.0205437 5.32207
RightShoulder  1.30702 10.3443 1.1826
RightArm  -57.6307 73.9967 12.417
RightForeArm  -50.283 8.32174 3.47058
RightHand  -4.21899 13.2253 -26.1994
LeftUpLeg  -38.56 -3.36856 2.09473
LeftLeg  30.17 0.9082 0.922468
LeftFoot  5.38283 1.33749 -9.3279
LeftToes  1.45487e-011 -6.19069e-011 1.65092e-011
568
root  27.9977 38.2414 -27.567 4.30185 -30.9538 6.23459
RightUpLeg  -39.3386 -35.1736 16.4898
RightLeg  24.7405 -4.84014 -2.11946
RightFoot  -5.79044 0.62581 -13.6147
RightToes  5.82063e-011 0 -3.6325e-017
Spine  65.4079 -3.39421 6.44272
Spine1  13.5799 0.310531 -2.02448
HEad  -26.8861 5.60319 -14.1978
LeftShoulder1  4.0092 -21.9424 -8.19748
LeftArm  -61.0041 -78.3508 2.21053
LeftForeArm  -27.3171 4.42426 -0.653831
LeftHand  -0.244104 0.0205437 5.32207
RightShoulder  1.33053 10.3849 1.34231
RightArm  -59.4753 73.9323 10.2774
RightForeArm  -50.2964 8.99334 3.57659
RightHand  -4.22943 13.2114 -26.2801
LeftUpLeg  -38.7011 -3.06636 1.89894
LeftLeg  36.5859 4.80665 4.16721
LeftFoot  3.22227 0.975452 -7.74928
LeftToes  1.45487e-011 -6.19069e-011 1.65092e-011
569
root  28.4674 38.3691 -28.2983 5.22501 -29.2974 6.3674
RightUpLeg  -37.6891 -31.6743 13.0349
RightLeg  20.5098 -10.7728 -0.0377603
RightFoot  -3.1923 0.979908 -13.9811
RightToes  5.82063e-011 0 -3.6325e-017
Spine  65.1612 -3.41841 6.32548
Spine1  13.4097 0.254343 -1.96681
HEad  -26.4687 4.92368 -13.2972
LeftShoulder1  3.90978 -21.7821 -7.87287
LeftArm  -60.7551 -78.39 1.72043
LeftForeArm  -27.138 3.81387 -0.6857
LeftHand  -0.244104 0.0205437 5.32207
RightShoulder  1.32743 10.248 1.42341
RightArm  -59.6477 73.6824 10.4394
RightForeArm  -50.0424 9.78968 3.65656
RightHand  -4.32788 13.3862 -26.6219
LeftUpLeg  -38.1205 -1.3211 0.898931
LeftLeg  42.2388 6.45687 6.60404
LeftFoot  0.241383 0.54761 -5.40204
LeftToes  1.45487e-011 -6.19069e-011 1.65092e-011
570
root  28.9349 38.3901 -29.0216 5.94141 -27.5234 6.43207
RightUpLeg  -34.6246 -22.8642 5.62381
RightLeg  16.7655 -22.8781 2.21871
RightFoot  -0.779923 1.27546 -13.7814
RightToes  5.82063e-011 0 -3.6325e-017
Spine  64.8362 -3.32132 6.25582
Spine1  13.3045 0.197515 -1.49528
HEad  -26.1864 4.1847 -12.7255
LeftShoulder1  3.89901 -21.6573 -7.91155
LeftArm  -60.485 -78.6413 1.36593
LeftForeArm  -26.8916 3.60723 -0.780201
LeftHand  -0.244104 0.0205437 5.32207
RightShoulder  1.25734 9.9007 1.11644
RightArm  -58.6588 73.405 11.9341
RightForeArm  -50.0333 10.456 3.75347
RightHand  -4.56595 13.9246 -27.268
LeftUpLeg  -36.9988 0.939578 -0.294799
LeftLeg  46.5374 6.30532 7.47152
LeftFoot  -1.65417 0.322747 -3.72583
LeftToes  1.45487e-011 -6.19069e-011 1.65092e-011
571
root  29.4209 38.3067 -29.7419 6.39728 -25.6574 6.3425
RightUpLeg  -33.3788 -16.0899 0.619207
RightLeg  13.4234 -32.4055 3.95544
RightFoot  1.27912 1.49249 -13.3385
RightToes  5.82063e-011 0 -3.6325e-017
Spine  64.5125 -3.32261 6.42845
Spine1  13.2372 0.123459 -0.977607
HEad  -25.7809 3.50208 -12.3079
LeftShoulder1  3.99947 -21.7856 -8.26538
LeftArm  -60.2221 -78.9227 0.951642
LeftForeArm  -26.429 3.78771 -0.777576
LeftHand  -0.244104 0.0205437 5.32207
RightShoulder  1.26338 9.79118 1.25497
RightArm  -57.3127 72.9082 13.3105
RightForeArm  -50.1277 11.105 3.96332
RightHand  -4.78912 14.4313 -27.8397
LeftUpLeg  -35.2436 3.34615 -1.22752
LeftLeg  48.9683 5.38588 7.02823
LeftFoot  -2.06678 0.401826 -4.79855
LeftToes  1.45487e-011 -6.19069e-011 1.65092e-011
572
root  29.9404 38.1929 -30.4663 6.52008 -23.9983 6.37289
RightUpLeg  -32.7864 -12.6333 -2.05652
RightLeg  9.64784 -37.7925 5.552
RightFoot  3.33633 1.73896 -13.2428
RightToes  5.82063e-011 0 -3.6325e-017
Spine  64.2441 -3.41846 6.32487
Spine1  13.3594 0.022286 -0.972986
HEad  -25.1561 3.22835 -11.9798
LeftShoulder1  4.04211 -21.5809 -8.60071
LeftArm  -59.9766 -79.3005 0.260978
LeftForeArm  -25.7606 3.92405 -0.67954
LeftHand  -0.244104 0.0205437 5.32207
RightShoulder  1.31087 9.94694 1.53067
RightArm  -56.1944 72.4354 14.8877
RightForeArm  -49.8113 11.8651 4.09587
RightHand  -4.83841 14.5087 -28.0063
LeftUpLeg  -32.4046 5.87062 -2.17244
LeftLeg  48.1762 4.77021 6.12129
LeftFoot  -3.4726 0.539478 -7.63886
LeftToes  1.45487e-011 -6.19069e-011 1.65092e-011
573
root  30.4922 38.1243 -31.1904 6.336 -22.6455 6.89575
RightUpLeg  -32.2158 -12.225 -3.35264
RightLeg  5.10022 -39.1704 7.63262
RightFoot  5.60204 2.00463 -13.1378
RightToes  5.82063e-011 0 -3.6325e-017
Spine  64.1876 -3.46092 5.58082
Spine1  13.5768 -0.0662262 -1.5293
HEad  -24.2115 3.30209 -11.8668
LeftShoulder1  4.05999 -21.1798 -8.9766
LeftArm  -59.1877 -79.5895 -0.846717
LeftForeArm  -25.0693 3.7841 -0.693721
LeftHand  -0.244104 0.0205437 5.32207
RightShoulder  1.35727 10.168 1.7376
RightArm  -55.2445 72.085 16.5892
RightForeArm  -49.3342 12.4458 4.13046
RightHand  -4.82195 14.4184 -28.0364
LeftUpLeg  -28.9457 8.3949 -3.82883
LeftLeg  43.7355 4.63583 5.14141
LeftFoot  -7.50029 0.34972 -8.80996
LeftToes  1.45487e-011 -6.19069e-011 1.65092e-011
